<?xml version="1.0" encoding="UTF-8"?>
<svg id="Layer_2" data-name="Layer 2" xmlns="http://www.w3.org/2000/svg" viewBox="0 0 591.6 200.13">
  <defs>
    <style>
      .cls-1 {
        fill: #fff;
      }
    </style>
  </defs>
  <g id="Layer_1-2" data-name="Layer 1">
    <g>
      <path class="cls-1" d="M324.66,118.99c-11.19-16.41-22.39-32.83-34.11-50.02-6.66,9.34-12.84,17.95-18.95,26.59-12.23,17.28-24,34.9-36.71,51.81-25.46,33.87-59.81,51.6-102.06,52.36-42.81,.76-85.65,.18-128.48,.17-1.31,0-2.62-.15-4.34-.25V77.98c1.82-.12,3.44-.31,5.06-.31,16.66-.02,33.33,.1,49.99-.1,4.07-.05,5.44,1.06,5.4,5.3-.2,20.5,.04,41.01-.19,61.51-.05,4.46,1.29,5.65,5.65,5.58,24.65-.38,49.31-.24,73.96-.83,5.87-.14,11.74-2.17,17.52-3.68,7.33-1.92,13.27-6.05,17.67-12.32,15.4-21.97,30.86-43.89,46.22-65.89,10.5-15.03,20.67-30.29,31.34-45.19,11.81-16.49,27.38-24.94,48.25-21.16,11.74,2.12,20.23,9.13,27.22,18.15,5.1,6.58,9.69,13.56,14.25,20.53,.77,1.17,.94,3.68,.2,4.76-13.3,19.4-17.69,41.07-16.76,64.17,.13,3.32,.02,6.65,.02,9.97-.38,.18-.75,.35-1.13,.53Z"/>
      <path class="cls-1" d="M395.9,199.66H233.15c.85-1.46,1.43-2.69,2.22-3.77,10.26-14.18,20.6-28.29,30.77-42.54,1.85-2.59,3.82-3.62,7.01-3.6,18.99,.14,37.99-.05,56.98,.15,4.21,.04,5.39-1.32,5.33-5.41-.21-14.17-.02-28.34-.09-42.51-.19-38.16,17.8-65.38,50.6-83.36,19.23-10.54,40.27-15.17,62.01-15.37,46.65-.42,93.31-.17,139.96-.19,.79,0,1.57,.14,3.04,.28-1.02,1.64-1.66,2.9-2.5,4.01-10.89,14.33-21.88,28.59-32.67,42.99-2.01,2.69-4.16,3.65-7.49,3.64-31.49-.12-62.98-.07-94.48-.06-11.34,0-22.23,2.15-32.26,7.57-16.64,9-25.66,22.81-25.68,42.01-.03,30-.01,60.01-.01,90.01,0,1.94,0,3.89,0,6.13Z"/>
      <path class="cls-1" d="M.1,54.04c1.2-1.8,1.85-2.9,2.61-3.91C13.66,35.65,24.57,21.13,35.67,6.76c1.25-1.62,3.62-3.37,5.48-3.37,35.14,.04,70.32-.61,105.41,.86,27.38,1.15,52.42,10.61,73.48,28.98,2.37,2.07,4.8,4.06,7.41,6.26-12.97,18.26-25.28,35.59-37.76,53.15-.62-.7-1.05-.98-1.17-1.35-7.09-22.52-24.34-32.25-45.94-36.28-4.55-.85-9.28-.93-13.93-.93-40.64-.07-81.29-.04-121.93-.04-1.93,0-3.87,0-6.61,0Z"/>
      <path class="cls-1" d="M591.6,149.79c-7.41,9.61-13.9,18.03-20.39,26.44-5.29,6.86-10.43,13.85-15.99,20.5-1.36,1.63-4.06,3.01-6.14,3.02-32.66,.18-65.33,.22-97.99,.06-14.24-.07-28.2-2.3-41.8-6.67-2.55-.82-3.84-1.93-3.82-4.86,.11-18.17,.05-36.34,.06-54.52,0-.63,.21-1.25,.32-1.89,.48,0,.92-.13,1.08,.02,13.59,13.36,30.41,17.88,48.87,17.89,42.83,.01,85.65,0,128.48,0,1.96,0,3.92,0,7.32,0Z"/>
    </g>
  </g>
</svg>